<svg xmlns="http://www.w3.org/2000/svg" xmlns:xlink="http://www.w3.org/1999/xlink" xmlns:inkscape="http://www.inkscape.org/namespaces/inkscape" version="1.1" width="400" height="84" viewBox="0 0 400 84">
<defs>
<clipPath id="clip_0">
<path transform="matrix(1,0,0,-1,0,84)" d="M0 84H400V0H0Z"/>
</clipPath>
</defs>
<g inkscape:groupmode="layer" inkscape:label="Layer 1">
<g clip-path="url(#clip_0)">
<path transform="matrix(1,0,0,-1,76.9236,38.1044)" d="M0 0C1.315 1.315 1.315 3.447 0 4.762-1.315 6.077-3.447 6.077-4.762 4.762-6.077 3.447-6.077 1.315-4.762 0-3.447-1.315-1.315-1.315 0 0" fill="#13b47e"/>
<path transform="matrix(1,0,0,-1,67.3992,28.580002)" d="M0 0C3.945 3.945 10.341 3.945 14.287 0 18.232-3.945 18.232-10.341 14.287-14.287L7.143-21.43 0-14.287C-3.945-10.341-3.945-3.945 0 0M28.573 14.286C16.738 26.122-2.451 26.122-14.286 14.286L-30.954-2.381-35.716-7.143-30.954-11.905 7.143-50.003 11.905-45.241-26.192-7.143-9.524 9.524C-.319 18.73 14.606 18.73 23.811 9.524 33.016 .319 33.016-14.606 23.811-23.811L16.668-30.954 11.905-26.192 19.049-19.049C25.624-12.474 25.624-1.813 19.049 4.762 12.474 11.337 1.813 11.337-4.762 4.762-11.192-1.667-11.333-12.003-5.188-18.605L-5.197-18.614 11.905-35.716 16.668-40.478 21.43-35.716 28.573-28.573C40.408-16.738 40.408 2.451 28.573 14.286" fill="#13b47e"/>
</g>
<text fill="#030505" xml:space="preserve" transform="matrix(1 0 -0 1 0 84)" font-size="33.0769" font-family="NulshockRg" font-weight="bold"><tspan y="-35.5469" x="115.0156 141.6425 172.70172 201.28015 227.14629 253.0455 281.82243 310.56626 341.62547">PARKCHUNG</tspan></text>
<text fill="#231f20" xml:space="preserve" transform="matrix(1 0 -0 1 0 84)" font-size="12" font-family="MyriadPro"><tspan y="-21.3589" x="116.6694 122.71741 128.5734 134.3934 140.6934 143.8014 147.98941 150.97742 161.28542 167.46543 170.03342 173.14142 179.18943 185.04541 190.86542 197.16542 200.27342 210.58142 217.44542 224.35742 230.70543 236.05742 238.62541 241.73342 247.78142 253.6374 259.4574 265.7574 268.8654 274.93739 280.8654 285.1974 289.38539 296.29737">Save time. Save money. Save Earth.</tspan></text>
</g>
</svg>
